<svg width="24" height="24" viewBox="0 0 24 24" fill="none" xmlns="http://www.w3.org/2000/svg">
<g clip-path="url(#clip0_26_337)">
<path d="M4.64519 8.05801L11.8684 11.5349C11.9522 11.5752 12.0498 11.5752 12.1336 11.5349L19.3568 8.05796C19.5877 7.94692 19.5877 7.61815 19.3568 7.50706L12.1335 4.03027C12.0498 3.98995 11.9521 3.98995 11.8683 4.03027L4.64519 7.50711C4.41429 7.61819 4.41429 7.94692 4.64519 8.05801Z" fill="#1E1E1E"/>
<path d="M4.64413 12.2754L11.8673 15.7523C11.9511 15.7926 12.0488 15.7926 12.1326 15.7523L19.3558 12.2754C19.5867 12.1644 19.5867 11.8356 19.3558 11.7244L17.8318 10.991L12.9916 13.3207C12.6841 13.4686 12.3412 13.5468 11.9999 13.5468C11.6587 13.5468 11.3159 13.4686 11.0079 13.3204L6.16815 10.9908L4.64408 11.7244C4.41323 11.8356 4.41323 12.1643 4.64413 12.2754Z" fill="#1E1E1E"/>
<path d="M19.3559 15.9419L17.8319 15.2083L12.9917 17.5381C12.6842 17.686 12.3413 17.7642 12.0001 17.7642C11.6588 17.7642 11.316 17.686 11.008 17.5379L6.16825 15.2083L4.64418 15.9419C4.41328 16.0531 4.41328 16.3817 4.64418 16.4929L11.8674 19.9698C11.9512 20.0101 12.0488 20.0101 12.1326 19.9698L19.3558 16.4929C19.5868 16.3817 19.5868 16.053 19.3559 15.9419Z" fill="#1E1E1E"/>
</g>
<defs>
<clipPath id="clip0_26_337">
<rect width="16" height="16" fill="white" transform="translate(4 4)"/>
</clipPath>
</defs>
</svg>
