<svg width="24" height="24" viewBox="0 0 24 24" fill="none" xmlns="http://www.w3.org/2000/svg">
<g clip-path="url(#clip0_26_108)">
<path fill-rule="evenodd" clip-rule="evenodd" d="M5.35587 5.35244C4.88588 5.82244 4.88605 6.58423 5.35575 7.05422L10.3017 11.9997L5.35587 16.9455C4.88617 17.4152 4.88595 18.1766 5.3552 18.6466C5.5904 18.8831 5.90005 19 6.20642 19C6.5149 19 6.82271 18.8809 7.05658 18.6484L12.0036 13.7015L16.9491 18.6466C17.1843 18.8829 17.4937 19 17.8003 19C18.1085 19 18.416 18.8805 18.6495 18.6484L18.6507 18.6473C19.1206 18.1773 19.1206 17.4155 18.6507 16.9455L13.7051 11.9999L18.6507 7.05434C19.1204 6.58435 19.1207 5.82244 18.6507 5.35244C18.1808 4.88252 17.4189 4.88252 16.949 5.35244L12.0033 10.2981L7.05765 5.35233C6.58766 4.88262 5.82587 4.88245 5.35587 5.35244Z" fill="#1E1E1E"/>
</g>
<defs>
<clipPath id="clip0_26_108">
<rect width="14" height="14" fill="white" transform="translate(5 5)"/>
</clipPath>
</defs>
</svg>
