<svg width="24" height="24" viewBox="0 0 24 24" fill="none" xmlns="http://www.w3.org/2000/svg">
<g clip-path="url(#clip0_26_39)">
<path fill-rule="evenodd" clip-rule="evenodd" d="M18.7485 20L4 5.25146L5.25146 4L20 18.7485L18.7485 20Z" fill="#1E1E1E"/>
<path fill-rule="evenodd" clip-rule="evenodd" d="M20.0004 16.1852V6.60764C20.0004 5.71937 19.2744 4.99341 18.3862 4.99341H8.80855L10.6179 6.80277H18.191V14.3759L20.0004 16.1852ZM18.191 17.0352V17.1906H14V18.9999H18.3862C18.8696 18.9999 19.305 18.7849 19.6014 18.4456L18.191 17.0352ZM7.95857 6.80277L6.14921 4.99341H5.61423C4.72596 4.99341 4 5.71937 4 6.60764V8.93142H5.80936V6.80277H7.95857ZM4 10.8046H4.19513C8.63116 10.8046 12.1953 14.3688 12.1953 18.8048V18.9999H10.386V18.8048C10.386 15.3648 7.63512 12.6139 4.19513 12.6139H4V10.8046ZM4 13.6428H4.19513C7.07014 13.6428 9.35712 15.9298 9.35712 18.8048V18.9999H7.54776V18.8048C7.54776 16.9258 6.07411 15.4522 4.19513 15.4522H4V13.6428ZM4 16.481H4.19513C5.50913 16.481 6.51891 17.4908 6.51891 18.8048V18.9999H4V16.481Z" fill="#1E1E1E"/>
</g>
<defs>
<clipPath id="clip0_26_39">
<rect width="16" height="16" fill="white" transform="translate(4 4)"/>
</clipPath>
</defs>
</svg>
