<svg width="24" height="24" viewBox="0 0 24 24" fill="none" xmlns="http://www.w3.org/2000/svg">
<path d="M15.8333 7.03066C16.1164 6.74752 16.5075 6.5657 16.8661 6.5657C17.5956 6.5657 18.2607 7.23079 18.2607 7.96036C18.2607 8.68993 17.5956 9.35502 16.8661 9.35502C16.135 9.35502 15.4714 8.70909 15.4714 7.96036C15.4714 7.58451 15.5623 7.30165 15.8333 7.03066Z" fill="#1E1E1E"/>
<path d="M13.8711 10.5775C14.3165 10.0329 15.1982 10.1422 15.4503 10.747L17.6562 15.9012C17.9231 16.5238 17.4693 17.2283 16.8661 17.2283H7.03475C6.62266 17.2283 6.34224 17.0302 6.20273 16.7639C6.0615 16.4943 6.05738 16.1401 6.23445 15.8183L8.5596 12.1556C8.73548 11.8929 9.02657 11.7342 9.31619 11.71C9.60308 11.6861 9.87729 11.7937 10.0439 12.0519L10.0486 12.0593L10.461 12.5748C10.9431 13.3104 12.0372 13.3085 12.5161 12.569L13.8711 10.5775Z" fill="#1E1E1E"/>
<path fill-rule="evenodd" clip-rule="evenodd" d="M1.86832 6.49695C1.86832 4.59194 3.46151 3 5.34466 3H18.7416C20.6475 3 22.2344 4.59239 22.1561 6.48987V17.5031C22.1561 19.4068 20.5436 21 18.6592 21H5.36527C3.46089 21 1.86832 19.4075 1.86832 17.5031V6.49695ZM5.34466 4.75878C4.42683 4.75878 3.60649 5.55561 3.60649 6.49695V17.6061C3.60649 18.524 4.40331 19.3443 5.34466 19.3443H18.7416C19.6964 19.3443 20.3768 18.5304 20.3768 17.6061V6.49695C20.3768 5.57912 19.5799 4.75878 18.6386 4.75878H5.34466Z" fill="#1E1E1E"/>
</svg>
